<svg width="322" height="87" viewBox="0 0 322 87" fill="none" xmlns="http://www.w3.org/2000/svg">
<rect width="322" height="6" transform="translate(0 81)" fill="#202F4A"/>
<g filter="url(#filter0_i_499_1226)">
<rect width="322" height="81" fill="#4779D8"/>
<rect width="322" height="81" fill="url(#paint0_linear_499_1226)"/>
<g filter="url(#filter1_dd_499_1226)">
<path d="M52.2 61V16.2H65.64V52.04H79.08V61H52.2ZM85.45 61V16.2H116.81V61H103.37V43.08H98.89V61H85.45ZM103.37 34.12V25.16H98.89V34.12H103.37ZM123.2 61V16.2H136.64V52.04H141.12V16.2H154.56V61H123.2ZM174.39 43.08V61H160.95V16.2H174.39V25.16H178.87V34.12H183.35V16.2H196.79V61H183.35V52.04H178.87V43.08H174.39ZM230.08 52.04V61H203.2V16.2H230.08V25.16H216.64V52.04H230.08ZM236.45 61V16.2H249.89V34.12H254.37V16.2H267.81V61H254.37V43.08H249.89V61H236.45Z" fill="#E7EDF9"/>
</g>
</g>
<defs>
<filter id="filter0_i_499_1226" x="0" y="0" width="322" height="81" filterUnits="userSpaceOnUse" color-interpolation-filters="sRGB">
<feFlood flood-opacity="0" result="BackgroundImageFix"/>
<feBlend mode="normal" in="SourceGraphic" in2="BackgroundImageFix" result="shape"/>
<feColorMatrix in="SourceAlpha" type="matrix" values="0 0 0 0 0 0 0 0 0 0 0 0 0 0 0 0 0 0 127 0" result="hardAlpha"/>
<feMorphology radius="4" operator="erode" in="SourceAlpha" result="effect1_innerShadow_499_1226"/>
<feOffset/>
<feGaussianBlur stdDeviation="3.5"/>
<feComposite in2="hardAlpha" operator="arithmetic" k2="-1" k3="1"/>
<feColorMatrix type="matrix" values="0 0 0 0 0.533654 0 0 0 0 0.691339 0 0 0 0 1 0 0 0 0.3 0"/>
<feBlend mode="normal" in2="shape" result="effect1_innerShadow_499_1226"/>
</filter>
<filter id="filter1_dd_499_1226" x="44.2" y="16.2" width="231.61" height="60.8" filterUnits="userSpaceOnUse" color-interpolation-filters="sRGB">
<feFlood flood-opacity="0" result="BackgroundImageFix"/>
<feColorMatrix in="SourceAlpha" type="matrix" values="0 0 0 0 0 0 0 0 0 0 0 0 0 0 0 0 0 0 127 0" result="hardAlpha"/>
<feOffset dy="6"/>
<feComposite in2="hardAlpha" operator="out"/>
<feColorMatrix type="matrix" values="0 0 0 0 0.195544 0 0 0 0 0.195544 0 0 0 0 0.225962 0 0 0 1 0"/>
<feBlend mode="normal" in2="BackgroundImageFix" result="effect1_dropShadow_499_1226"/>
<feColorMatrix in="SourceAlpha" type="matrix" values="0 0 0 0 0 0 0 0 0 0 0 0 0 0 0 0 0 0 127 0" result="hardAlpha"/>
<feOffset dy="8"/>
<feGaussianBlur stdDeviation="4"/>
<feComposite in2="hardAlpha" operator="out"/>
<feColorMatrix type="matrix" values="0 0 0 0 0 0 0 0 0 0 0 0 0 0 0 0 0 0 0.15 0"/>
<feBlend mode="normal" in2="effect1_dropShadow_499_1226" result="effect2_dropShadow_499_1226"/>
<feBlend mode="normal" in="SourceGraphic" in2="effect2_dropShadow_499_1226" result="shape"/>
</filter>
<linearGradient id="paint0_linear_499_1226" x1="161" y1="0" x2="161" y2="81" gradientUnits="userSpaceOnUse">
<stop stop-color="#76A5FF"/>
<stop offset="0.543269" stop-color="#4779D8"/>
<stop offset="1" stop-color="#2F4876"/>
</linearGradient>
</defs>
</svg>
