<svg width="322" height="87" viewBox="0 0 322 87" fill="none" xmlns="http://www.w3.org/2000/svg">
<g filter="url(#filter0_i_499_1227)">
<rect width="322" height="81" fill="#4779D8"/>
<rect width="322" height="81" fill="url(#paint0_linear_499_1227)"/>
<g filter="url(#filter1_dd_499_1227)">
<path d="M101.08 52.04V61H74.2V16.2H101.08V25.16H87.64V52.04H101.08ZM107.45 61V16.2H120.89V52.04H134.33V61H107.45ZM140.7 61V16.2H172.06V61H140.7ZM158.62 52.04V25.16H154.14V52.04H158.62ZM178.45 43.08V16.2H209.81V25.16H191.89V34.12H209.81V61H178.45V52.04H196.37V43.08H178.45ZM229.64 43.08V52.04H247.56V61H216.2V16.2H247.56V25.16H229.64V34.12H243.08V43.08H229.64Z" fill="#F9E7E7"/>
</g>
</g>
<rect width="322" height="6" transform="translate(0 81)" fill="#4A2020"/>
<defs>
<filter id="filter0_i_499_1227" x="0" y="0" width="322" height="81" filterUnits="userSpaceOnUse" color-interpolation-filters="sRGB">
<feFlood flood-opacity="0" result="BackgroundImageFix"/>
<feBlend mode="normal" in="SourceGraphic" in2="BackgroundImageFix" result="shape"/>
<feColorMatrix in="SourceAlpha" type="matrix" values="0 0 0 0 0 0 0 0 0 0 0 0 0 0 0 0 0 0 127 0" result="hardAlpha"/>
<feMorphology radius="4" operator="erode" in="SourceAlpha" result="effect1_innerShadow_499_1227"/>
<feOffset/>
<feGaussianBlur stdDeviation="3.5"/>
<feComposite in2="hardAlpha" operator="arithmetic" k2="-1" k3="1"/>
<feColorMatrix type="matrix" values="0 0 0 0 1 0 0 0 0 0.533654 0 0 0 0 0.533654 0 0 0 0.3 0"/>
<feBlend mode="normal" in2="shape" result="effect1_innerShadow_499_1227"/>
</filter>
<filter id="filter1_dd_499_1227" x="66.2" y="16.2" width="189.36" height="60.8" filterUnits="userSpaceOnUse" color-interpolation-filters="sRGB">
<feFlood flood-opacity="0" result="BackgroundImageFix"/>
<feColorMatrix in="SourceAlpha" type="matrix" values="0 0 0 0 0 0 0 0 0 0 0 0 0 0 0 0 0 0 127 0" result="hardAlpha"/>
<feOffset dy="6"/>
<feComposite in2="hardAlpha" operator="out"/>
<feColorMatrix type="matrix" values="0 0 0 0 0.225962 0 0 0 0 0.195544 0 0 0 0 0.195544 0 0 0 1 0"/>
<feBlend mode="normal" in2="BackgroundImageFix" result="effect1_dropShadow_499_1227"/>
<feColorMatrix in="SourceAlpha" type="matrix" values="0 0 0 0 0 0 0 0 0 0 0 0 0 0 0 0 0 0 127 0" result="hardAlpha"/>
<feOffset dy="8"/>
<feGaussianBlur stdDeviation="4"/>
<feComposite in2="hardAlpha" operator="out"/>
<feColorMatrix type="matrix" values="0 0 0 0 0 0 0 0 0 0 0 0 0 0 0 0 0 0 0.15 0"/>
<feBlend mode="normal" in2="effect1_dropShadow_499_1227" result="effect2_dropShadow_499_1227"/>
<feBlend mode="normal" in="SourceGraphic" in2="effect2_dropShadow_499_1227" result="shape"/>
</filter>
<linearGradient id="paint0_linear_499_1227" x1="161" y1="0" x2="161" y2="81" gradientUnits="userSpaceOnUse">
<stop stop-color="#FF7676"/>
<stop offset="0.543269" stop-color="#D84747"/>
<stop offset="1" stop-color="#762F2F"/>
</linearGradient>
</defs>
</svg>
