<svg width="121" height="49" viewBox="0 0 121 49" fill="none" xmlns="http://www.w3.org/2000/svg">
<g filter="url(#filter0_di_493_71)">
<rect width="120.75" height="45" fill="url(#paint0_linear_493_71)"/>
<g filter="url(#filter1_d_493_71)">
<path d="M39.875 31H38.375H36.875H35.375H33.875H32.375H30.875H29.375V29.5V28H30.875H32.375H33.875H35.375H36.875H38.375H39.875H41.375V29.5V31H39.875ZM41.375 28V26.5V25V23.5V22V20.5V19V17.5V16H42.875H44.375V17.5V19V20.5V22V23.5V25V26.5V28H42.875H41.375ZM29.375 28H27.875H26.375V26.5V25V23.5V22V20.5V19V17.5V16H27.875H29.375V17.5V19V20.5V22V23.5V25V26.5V28ZM41.375 16H39.875H38.375H36.875H35.375H33.875H32.375H30.875H29.375V14.5V13H30.875H32.375H33.875H35.375H36.875H38.375H39.875H41.375V14.5V16ZM51.875 31H50.375V29.5V28H51.875H53.375V29.5V31H51.875ZM50.375 28H48.875H47.375V26.5V25V23.5V22V20.5H45.875V19V17.5H47.375V16V14.5H48.875H50.375V16V17.5H51.875V19V20.5H50.375V22V23.5V25V26.5V28ZM65.375 31H63.875V29.5V28V26.5V25V23.5V22H65.375H66.875V23.5V25V26.5V28V29.5V31H65.375ZM56.375 31H54.875V29.5V28V26.5V25V23.5V22V20.5V19V17.5V16V14.5V13H56.375H57.875V14.5V16V17.5V19V20.5V22H59.375H60.875V23.5V25H59.375H57.875V26.5V28V29.5V31H56.375ZM63.875 22H62.375H60.875V20.5V19H62.375H63.875V20.5V22ZM78.875 31H77.375H75.875H74.375H72.875H71.375V29.5V28H72.875H74.375H75.875H77.375V26.5H78.875H80.375V28V29.5V31H78.875ZM71.375 28H69.875H68.375V26.5V25V23.5V22V20.5H69.875H71.375V19V17.5H72.875H74.375H75.875H77.375H78.875H80.375V19V20.5V22V23.5H78.875H77.375V25H75.875H74.375H72.875H71.375V26.5V28ZM75.875 22H77.375V20.5H75.875H74.375H72.875H71.375V22H72.875H74.375H75.875ZM90.875 22V20.5H89.375H87.875H86.375V22H84.875V23.5V25V26.5V28V29.5V31H83.375H81.875V29.5V28V26.5V25V23.5V22V20.5V19V17.5H83.375H84.875V19H86.375V17.5H87.875H89.375H90.875V19H92.375V20.5V22H90.875Z" fill="#E7EDF9"/>
</g>
</g>
<defs>
<filter id="filter0_di_493_71" x="0" y="0" width="120.75" height="49" filterUnits="userSpaceOnUse" color-interpolation-filters="sRGB">
<feFlood flood-opacity="0" result="BackgroundImageFix"/>
<feColorMatrix in="SourceAlpha" type="matrix" values="0 0 0 0 0 0 0 0 0 0 0 0 0 0 0 0 0 0 127 0" result="hardAlpha"/>
<feOffset dy="4"/>
<feComposite in2="hardAlpha" operator="out"/>
<feColorMatrix type="matrix" values="0 0 0 0 0.162144 0 0 0 0 0.208974 0 0 0 0 0.293269 0 0 0 1 0"/>
<feBlend mode="normal" in2="BackgroundImageFix" result="effect1_dropShadow_493_71"/>
<feBlend mode="normal" in="SourceGraphic" in2="effect1_dropShadow_493_71" result="shape"/>
<feColorMatrix in="SourceAlpha" type="matrix" values="0 0 0 0 0 0 0 0 0 0 0 0 0 0 0 0 0 0 127 0" result="hardAlpha"/>
<feMorphology radius="4" operator="erode" in="SourceAlpha" result="effect2_innerShadow_493_71"/>
<feOffset/>
<feGaussianBlur stdDeviation="3.5"/>
<feComposite in2="hardAlpha" operator="arithmetic" k2="-1" k3="1"/>
<feColorMatrix type="matrix" values="0 0 0 0 0.533654 0 0 0 0 0.691339 0 0 0 0 1 0 0 0 0.25 0"/>
<feBlend mode="normal" in2="shape" result="effect2_innerShadow_493_71"/>
</filter>
<filter id="filter1_d_493_71" x="26.375" y="13" width="66" height="21" filterUnits="userSpaceOnUse" color-interpolation-filters="sRGB">
<feFlood flood-opacity="0" result="BackgroundImageFix"/>
<feColorMatrix in="SourceAlpha" type="matrix" values="0 0 0 0 0 0 0 0 0 0 0 0 0 0 0 0 0 0 127 0" result="hardAlpha"/>
<feOffset dy="3"/>
<feComposite in2="hardAlpha" operator="out"/>
<feColorMatrix type="matrix" values="0 0 0 0 0 0 0 0 0 0 0 0 0 0 0 0 0 0 0.25 0"/>
<feBlend mode="normal" in2="BackgroundImageFix" result="effect1_dropShadow_493_71"/>
<feBlend mode="normal" in="SourceGraphic" in2="effect1_dropShadow_493_71" result="shape"/>
</filter>
<linearGradient id="paint0_linear_493_71" x1="61.4931" y1="0" x2="61.4931" y2="45" gradientUnits="userSpaceOnUse">
<stop stop-color="#44639D"/>
<stop offset="1" stop-color="#284780"/>
</linearGradient>
</defs>
</svg>
